<svg width="12" height="13" viewBox="0 0 12 13" fill="none" xmlns="http://www.w3.org/2000/svg">
<path fill-rule="evenodd" clip-rule="evenodd" d="M10.6501 4.36787C10.9186 4.38997 11.1188 4.62462 11.0974 4.89308C11.0935 4.93728 10.7412 9.29949 10.5383 11.1293C10.4122 12.2648 9.66213 12.9558 8.52982 12.9766C7.66335 12.9916 6.82744 13 6.01038 13C5.12962 13 4.27095 12.9903 3.42139 12.9727C2.33457 12.9512 1.58251 12.2466 1.45966 11.1338C1.25491 9.28779 0.904554 4.93663 0.901304 4.89308C0.879203 4.62462 1.07941 4.38932 1.34786 4.36787C1.61241 4.36072 1.85162 4.54662 1.87307 4.81443C1.87514 4.84264 2.01837 6.61952 2.17445 8.37759L2.2058 8.72843C2.28441 9.60228 2.3641 10.442 2.42883 11.0266C2.49838 11.659 2.83963 11.9853 3.44154 11.9977C5.06657 12.0321 6.72474 12.0341 8.51227 12.0016C9.15188 11.9892 9.49768 11.6694 9.56918 11.022C9.77069 9.20589 10.1217 4.85863 10.1256 4.81443C10.147 4.54662 10.3843 4.35942 10.6501 4.36787ZM7.37462 0C7.97133 0 8.49589 0.402356 8.64994 0.978915L8.81504 1.79858C8.8684 2.06727 9.1042 2.2635 9.37722 2.26781L11.5104 2.26788C11.7795 2.26788 11.9979 2.48629 11.9979 2.75539C11.9979 3.0245 11.7795 3.2429 11.5104 3.2429L9.39627 3.2428C9.39299 3.24287 9.3897 3.2429 9.3864 3.2429L9.37054 3.24225L2.62709 3.24282C2.62185 3.24287 2.6166 3.2429 2.61135 3.2429L2.60134 3.24225L0.487507 3.2429C0.218403 3.2429 0 3.0245 0 2.75539C0 2.48629 0.218403 2.26788 0.487507 2.26788L2.62019 2.26723L2.68585 2.26308C2.93044 2.23134 3.13372 2.04558 3.18336 1.79858L3.34131 1.00817C3.50186 0.402356 4.02642 0 4.62313 0H7.37462ZM7.37462 0.975015H4.62313C4.46713 0.975015 4.32997 1.07967 4.29032 1.22982L4.13887 1.99033C4.11962 2.08666 4.0916 2.17949 4.05573 2.26806H7.94222C7.9063 2.17949 7.87821 2.08666 7.85888 1.99033L7.70093 1.19992C7.66777 1.07967 7.53062 0.975015 7.37462 0.975015Z" fill="white"/>
</svg>
