<svg width="29" height="29" viewBox="0 0 29 29" fill="none" xmlns="http://www.w3.org/2000/svg">
<path d="M27.2188 5.25H22.5938V2.35938C22.5938 1.08389 21.5567 0.046875 20.2812 0.046875H8.71875C7.44326 0.046875 6.40625 1.08389 6.40625 2.35938V5.25H1.78125C1.1417 5.25 0.625 5.7667 0.625 6.40625V7.5625C0.625 7.72148 0.755078 7.85156 0.914062 7.85156H3.09648L3.98897 26.749C4.04678 27.9812 5.06572 28.9531 6.29785 28.9531H22.7021C23.9379 28.9531 24.9532 27.9848 25.011 26.749L25.9035 7.85156H28.0859C28.2449 7.85156 28.375 7.72148 28.375 7.5625V6.40625C28.375 5.7667 27.8583 5.25 27.2188 5.25ZM9.00781 2.64844H19.9922V5.25H9.00781V2.64844ZM22.4239 26.3516H6.57607L5.70166 7.85156H23.2983L22.4239 26.3516Z" fill="#262626"/>
</svg>
