<svg width="37" height="37" viewBox="0 0 37 37" fill="none" xmlns="http://www.w3.org/2000/svg">
<g clip-path="url(#clip0_98_1203)">
<path d="M28.778 30.8333H6.16688V8.22218H19.7541L21.8097 6.16663H6.16688C5.62172 6.16663 5.09888 6.38319 4.71339 6.76868C4.32789 7.15418 4.11133 7.67701 4.11133 8.22218V30.8333C4.11133 31.3785 4.32789 31.9013 4.71339 32.2868C5.09888 32.6723 5.62172 32.8888 6.16688 32.8888H28.778C29.3232 32.8888 29.846 32.6723 30.2315 32.2868C30.617 31.9013 30.8336 31.3785 30.8336 30.8333V15.4166L28.778 17.4722V30.8333Z" fill="#262626"/>
<path d="M34.4613 6.00224L30.9977 2.53863C30.844 2.38449 30.6613 2.2622 30.4603 2.17876C30.2592 2.09532 30.0437 2.05237 29.826 2.05237C29.6083 2.05237 29.3928 2.09532 29.1917 2.17876C28.9907 2.2622 28.808 2.38449 28.6543 2.53863L14.5635 16.7117L13.4227 21.6553C13.3741 21.8949 13.3792 22.1424 13.4376 22.3798C13.4961 22.6172 13.6064 22.8387 13.7607 23.0284C13.915 23.2181 14.1094 23.3712 14.33 23.4768C14.5506 23.5823 14.7918 23.6377 15.0363 23.6389C15.1627 23.6528 15.2902 23.6528 15.4166 23.6389L20.4013 22.5392L34.4613 8.34557C34.6154 8.19186 34.7377 8.00924 34.8211 7.80819C34.9046 7.60713 34.9475 7.39159 34.9475 7.17391C34.9475 6.95622 34.9046 6.74068 34.8211 6.53962C34.7377 6.33857 34.6154 6.15595 34.4613 6.00224V6.00224ZM19.3324 20.6378L15.5707 21.4703L16.4443 17.7395L27.051 7.06085L29.9493 9.95918L19.3324 20.6378ZM31.1107 8.7978L28.2124 5.89946L29.8054 4.27557L32.7243 7.19446L31.1107 8.7978Z" fill="#262626"/>
</g>
<defs>
<clipPath id="clip0_98_1203">
<rect width="37" height="37" fill="white"/>
</clipPath>
</defs>
</svg>
